ply
format ascii 1.0
element vertex 867
property float32 x
property float32 y
property float32 z
element face 1704
property list uint8 int32 vertex_indices
end_header
4.065289 1.0320001 -0.7168229
4.1280003 1.0320001 0.0
0.0 0.0 0.0
3.8790472 1.0320001 -1.411862
3.5749514 1.0320001 -2.0640085
3.1622286 1.0320001 -2.6534355
2.653418 1.0320001 -3.1622372
2.0639915 1.0320001 -3.5749598
1.4118448 1.0320001 -3.8790557
0.71680653 1.0320001 -4.065289
-1.5435451E-5 1.0320001 -4.1280003
-0.7168358 1.0320001 -4.0652804
-1.4118792 1.0320001 -3.8790472
-2.064017 1.0320001 -3.5749426
-2.653444 1.0320001 -3.16222
-3.162246 1.0320001 -2.6534095
-3.5749686 1.0320001 -2.0639744
-3.8790646 1.0320001 -1.4118363
-4.065289 1.0320001 -0.7167902
-4.1280003 1.0320001 3.1855E-5
-4.0652804 1.0320001 0.7168521
-3.8790383 1.0320001 1.4118878
-3.574934 1.0320001 2.0640342
-3.1622028 1.0320001 2.6534612
-2.6533923 1.0320001 3.1622546
-2.0639656 1.0320001 3.5749686
-1.411819 1.0320001 3.8790646
-0.71677387 1.0320001 4.065297
4.7290367E-5 1.0320001 4.1280003
0.71686846 1.0320001 4.0652804
1.4119049 1.0320001 3.87903
2.064043 1.0320001 3.5749252
2.6534698 1.0320001 3.1621943
3.162263 1.0320001 2.6533837
3.574977 1.0320001 2.0639484
3.879073 1.0320001 1.4118018
4.065297 1.0320001 0.7167567
8.130594 2.0640001 -1.4336458
8.2560005 2.0640001 0.0
7.7580767 2.0640001 -2.823724
7.149903 2.0640001 -4.1280003
6.3244658 2.0640001 -5.306871
5.306836 2.0640001 -6.3244658
4.127983 2.0640001 -7.149903
2.8236983 2.0640001 -7.75812
1.4336114 2.0640001 -8.130594
-3.087082E-5 2.0640001 -8.2560005
-1.4336716 2.0640001 -8.130552
-2.8237584 2.0640001 -7.7580767
-4.128043 2.0640001 -7.149903
-5.306871 2.0640001 -6.324423
-6.324509 2.0640001 -5.306836
-7.1499453 2.0640001 -4.127957
-7.75812 2.0640001 -2.8236637
-8.130594 2.0640001 -1.433577
-8.2560005 2.0640001 6.3709915E-5
-8.130552 2.0640001 1.433706
-7.7580767 2.0640001 2.823784
-7.1498594 2.0640001 4.128086
-6.324423 2.0640001 5.306914
-5.306793 2.0640001 6.324509
-4.1279225 2.0640001 7.1499453
-2.823638 2.0640001 7.75812
-1.4335512 2.0640001 8.130594
9.4581075E-5 2.0640001 8.2560005
1.4337405 2.0640001 8.130552
2.8238099 2.0640001 7.7580767
4.128086 2.0640001 7.1498594
5.306957 2.0640001 6.3243885
6.324552 2.0640001 5.3067503
7.1499453 2.0640001 4.127897
7.7581635 2.0640001 2.8236036
8.130594 2.0640001 1.4335167
13.415483 1.0320001 -2.3655074
13.622399 1.0320001 0.0
12.800842 1.0320001 -4.659153
11.797308 1.0320001 -6.8111997
10.435327 1.0320001 -8.756349
8.756262 1.0320001 -10.435412
6.811157 1.0320001 -11.797394
4.65911 1.0320001 -12.800928
2.3654556 1.0320001 -13.415483
-5.0937026E-5 1.0320001 -13.622399
-2.365559 1.0320001 -13.415399
-4.6591873 1.0320001 -12.800842
-6.811243 1.0320001 -11.797308
-8.756349 1.0320001 -10.435327
-10.435412 1.0320001 -8.756262
-11.797394 1.0320001 -6.8111143
-12.800928 1.0320001 -4.659067
-13.415483 1.0320001 -2.3654044
-13.622399 1.0320001 1.0512124E-4
-13.415399 1.0320001 2.3656106
-12.800842 1.0320001 4.6592307
-11.797308 1.0320001 6.811321
-10.435327 1.0320001 8.756434
-8.756176 1.0320001 10.435497
-6.8110795 1.0320001 11.797394
-4.6589813 1.0320001 12.800928
-2.3653526 1.0320001 13.415483
1.5605905E-4 1.0320001 13.622399
2.365662 1.0320001 13.415399
4.6592736 1.0320001 12.800842
6.811363 1.0320001 11.797222
8.756434 1.0320001 10.43524
10.435497 1.0320001 8.756176
11.79748 1.0320001 6.8110366
12.800928 1.0320001 4.658947
13.415483 1.0320001 2.365301
18.293749 -0.41279998 -3.2256966
18.576 -0.41279998 0.0
17.455765 -0.41279998 -6.353362
16.087246 -0.41279998 -9.288
14.230076 -0.41279998 -11.940412
11.940412 -0.41279998 -14.230076
9.288 -0.41279998 -16.087332
6.3533187 -0.41279998 -17.455765
3.225628 -0.41279998 -18.293833
-6.945936E-5 -0.41279998 -18.576
-3.2257655 -0.41279998 -18.293749
-6.3534474 -0.41279998 -17.455679
-9.288086 -0.41279998 -16.087246
-11.940498 -0.41279998 -14.229991
-14.230162 -0.41279998 -11.940326
-16.087332 -0.41279998 -9.287913
-17.455765 -0.41279998 -6.3532414
-18.293833 -0.41279998 -3.225559
-18.576 -0.41279998 1.4334738E-4
-18.293749 -0.41279998 3.2258341
-17.455679 -0.41279998 6.353525
-16.08716 -0.41279998 9.288172
-14.229904 -0.41279998 11.940584
-11.94024 -0.41279998 14.230162
-9.287828 -0.41279998 16.087418
-6.3531985 -0.41279998 17.455765
-3.22549 -0.41279998 18.293833
2.12807E-4 -0.41279998 18.576
3.2259116 -0.41279998 18.293749
6.353568 -0.41279998 17.455679
9.288172 -0.41279998 16.08716
11.940584 -0.41279998 14.229904
14.230248 -0.41279998 11.94024
16.087418 -0.41279998 9.287743
17.455849 -0.41279998 6.353112
18.293833 -0.41279998 3.2254128
21.54601 -1.0320001 -3.7991533
21.8784 -1.0320001 0.0
20.558989 -1.0320001 -7.482868
18.947262 -1.0320001 -10.9392
16.759766 -1.0320001 -14.06315
14.06315 -1.0320001 -16.759853
10.9392 -1.0320001 -18.947262
7.482783 -1.0320001 -20.558989
3.7990756 -1.0320001 -21.54601
-8.180785E-5 -1.0320001 -21.8784
-3.7992306 -1.0320001 -21.54601
-7.482946 -1.0320001 -20.558903
-10.939285 -1.0320001 -18.947176
-14.063235 -1.0320001 -16.759766
-16.759937 -1.0320001 -14.063065
-18.94735 -1.0320001 -10.939115
-20.558989 -1.0320001 -7.482705
-21.546097 -1.0320001 -3.79899
-21.8784 -1.0320001 1.6883176E-4
-21.54601 -1.0320001 3.7993166
-20.558903 -1.0320001 7.4830317
-18.947176 -1.0320001 10.939372
-16.75968 -1.0320001 14.063322
-14.063065 -1.0320001 16.759937
-10.939028 -1.0320001 18.94735
-7.4826193 -1.0320001 20.559074
-3.798904 -1.0320001 21.546097
2.5063928E-4 -1.0320001 21.8784
3.7994025 -1.0320001 21.54601
7.483118 -1.0320001 20.558903
10.939458 -1.0320001 18.94709
14.063409 -1.0320001 16.75968
16.760023 -1.0320001 14.062978
18.947433 -1.0320001 10.938942
20.559074 -1.0320001 7.4825416
21.546097 -1.0320001 3.7988176
24.39175 0.0 -4.30092
24.768 0.0 0.0
23.274265 0.0 -8.4711895
21.44969 0.0 -12.384
18.973406 0.0 -15.920577
15.920577 0.0 -18.973406
12.384 0.0 -21.449778
8.471069 0.0 -23.274353
4.300843 0.0 -24.39175
-9.2612536E-5 0.0 -24.768
-4.3010063 0.0 -24.391665
-8.471275 0.0 -23.274265
-12.384087 0.0 -21.44969
-15.920664 0.0 -18.97332
-18.973492 0.0 -15.920492
-21.449778 0.0 -12.383914
-23.274353 0.0 -8.470983
-24.39175 0.0 -4.300757
-24.768 0.0 1.9112983E-4
-24.391665 0.0 4.3011265
-23.274265 0.0 8.471361
-21.449604 0.0 12.384172
-18.973234 0.0 15.920751
-15.920406 0.0 18.973492
-12.383828 0.0 21.449862
-8.470905 0.0 23.274439
-4.3006363 0.0 24.39175
2.8374238E-4 0.0 24.768
4.3012123 0.0 24.391665
8.471439 0.0 23.27418
12.384257 0.0 21.449516
15.9208355 0.0 18.973234
18.973577 0.0 15.92032
21.449947 0.0 12.383742
23.274439 0.0 8.470819
24.39175 0.0 4.3005505
30.489666 6.192 -5.376144
30.96 6.192 0.0
29.092854 6.192 -10.589007
26.812134 6.192 -15.48
23.716736 6.192 -19.900745
19.900658 6.192 -23.716736
15.479915 6.192 -26.81222
10.588837 6.192 -29.09294
5.3760576 6.192 -30.489666
-1.1576546E-4 6.192 -30.96
-5.3762646 6.192 -30.48958
-10.589094 6.192 -29.092854
-15.480085 6.192 -26.812048
-19.90083 6.192 -23.71665
-23.716822 6.192 -19.900572
-26.81222 6.192 -15.479828
-29.09294 6.192 -10.58875
-30.489666 6.192 -5.3759375
-30.96 6.192 2.3891228E-4
-30.48958 6.192 5.3763933
-29.092768 6.192 10.58918
-26.812048 6.192 15.480257
-23.716564 6.192 19.900915
-19.900486 6.192 23.71691
-15.479741 6.192 26.812305
-10.588664 6.192 29.093027
-5.3758082 6.192 30.489666
3.546786E-4 6.192 30.96
5.3765135 6.192 30.48958
10.589353 6.192 29.092768
15.480344 6.192 26.811962
19.901003 6.192 23.716478
23.716993 6.192 19.9004
26.812393 6.192 15.479656
29.093027 6.192 10.588492
30.489752 6.192 5.375688
35.77454 12.384 -6.3080397
36.3264 12.384 0.0
34.135635 12.384 -12.424335
31.459576 12.384 -18.1632
27.827621 12.384 -23.350204
23.350119 12.384 -27.82771
18.163115 12.384 -31.459576
12.424248 12.384 -34.135635
6.307911 12.384 -35.77454
-1.3583184E-4 12.384 -36.3264
-6.3081603 12.384 -35.774452
-12.424506 12.384 -34.135548
-18.163372 12.384 -31.459488
-23.35029 12.384 -27.827536
-27.827795 12.384 -23.350033
-31.45966 12.384 -18.163027
-34.135723 12.384 -12.424162
-35.77454 12.384 -6.3077474
-36.3264 12.384 2.803239E-4
-35.774452 12.384 6.308289
-34.135548 12.384 12.424678
-31.459402 12.384 18.163458
-27.82745 12.384 23.350462
-23.349947 12.384 27.827879
-18.162857 12.384 31.459745
-12.42399 12.384 34.135807
-6.3076267 12.384 35.77454
4.1615573E-4 12.384 36.3264
6.3084526 12.384 35.774452
12.424765 12.384 34.135548
18.16363 12.384 31.459402
23.350548 12.384 27.827362
27.827965 12.384 23.349773
31.459831 12.384 18.16277
34.135807 12.384 12.423904
35.774624 12.384 6.3074636
40.65289 20.64 -7.168229
41.28 20.64 0.0
38.790474 20.64 -14.11862
35.74951 20.64 -20.64
31.622288 20.64 -26.534353
26.534182 20.64 -31.62237
20.639914 20.64 -35.7496
14.118447 20.64 -38.790558
7.1680655 20.64 -40.65289
-1.5435452E-4 20.64 -41.28
-7.168358 20.64 -40.6528
-14.118792 20.64 -38.790474
-20.640171 20.64 -35.749424
-26.53444 20.64 -31.6222
-31.622458 20.64 -26.534096
-35.749683 20.64 -20.639742
-38.790646 20.64 -14.118362
-40.65289 20.64 -7.167902
-41.28 20.64 3.1855004E-4
-40.6528 20.64 7.1685214
-38.790386 20.64 14.118878
-35.74934 20.64 20.640345
-31.622028 20.64 26.53461
-26.533924 20.64 31.622631
-20.639656 20.64 35.74977
-14.11819 20.64 38.790646
-7.167739 20.64 40.652977
4.729037E-4 20.64 41.28
7.1686845 20.64 40.6528
14.11905 20.64 38.7903
20.640429 20.64 35.749256
26.534698 20.64 31.62194
31.622631 20.64 26.533838
35.74986 20.64 20.639484
38.79073 20.64 14.118018
40.652977 20.64 7.1675663
42.685585 28.896 -7.526625
43.344 28.896 0.0
40.73003 28.896 -14.824594
37.53702 28.896 -21.672
33.203396 28.896 -27.860989
27.860903 28.896 -33.203484
21.671913 28.896 -37.53702
14.824423 28.896 -40.73003
7.5264616 28.896 -42.685585
-1.6207216E-4 28.896 -43.344
-7.5267887 28.896 -42.685585
-14.82468 28.896 -40.73003
-21.67217 28.896 -37.536934
-27.861162 28.896 -33.20331
-33.203655 28.896 -27.860819
-37.53711 28.896 -21.671741
-40.730114 28.896 -14.824249
-42.685585 28.896 -7.5262904
-43.344 28.896 3.3447807E-4
-42.685585 28.896 7.526952
-40.729946 28.896 14.824852
-37.53685 28.896 21.672344
-33.20314 28.896 27.861336
-27.860647 28.896 33.203655
-21.671656 28.896 37.537193
-14.824078 28.896 40.7302
-7.526127 28.896 42.685585
4.9654854E-4 28.896 43.344
7.5271153 28.896 42.685585
14.825025 28.896 40.72986
21.672516 28.896 37.536766
27.861418 28.896 33.203053
33.203823 28.896 27.86056
37.53728 28.896 21.671484
40.73029 28.896 14.823907
42.685585 28.896 7.525964
44.10854 37.152 -7.777522
44.788803 37.152 0.0
42.087883 37.152 -15.318749
38.788235 37.152 -22.394485
34.31013 37.152 -28.789705
28.789618 37.152 -34.31022
22.394314 37.152 -38.788322
15.318579 37.152 -42.087883
7.7773585 37.152 -44.10854
-1.6747382E-4 37.152 -44.788803
-7.777685 37.152 -44.10854
-15.318921 37.152 -42.087456
-22.394571 37.152 -38.78815
-28.789875 37.152 -34.310043
-34.310387 37.152 -28.789532
-38.78841 37.152 -22.394142
-42.087883 37.152 -15.318405
-44.10854 37.152 -7.777152
-44.788803 37.152 3.4562714E-4
-44.10811 37.152 7.777858
-42.087456 37.152 15.319008
-38.788063 37.152 22.394743
-34.30996 37.152 28.78996
-28.789358 37.152 34.310474
-22.39397 37.152 38.788494
-15.318234 37.152 42.087883
-7.7769885 37.152 44.10854
5.131018E-4 37.152 44.788803
7.778021 37.152 44.10811
15.3191805 37.152 42.087456
22.394917 37.152 38.787975
28.790134 37.152 34.30987
34.310646 37.152 28.789188
38.788578 37.152 22.393883
42.087883 37.152 15.318063
44.10854 37.152 7.776825
43.904976 44.9952 -7.741651
44.5824 44.9952 0.0
41.893867 44.9952 -15.248144
38.60944 44.9952 -22.291286
34.15206 44.9952 -28.657093
28.65692 44.9952 -34.15215
22.291113 44.9952 -38.609528
15.2479725 44.9952 -41.893867
7.741531 44.9952 -43.904976
-1.6670239E-4 44.9952 -44.5824
-7.7418146 44.9952 -43.904976
-15.248231 44.9952 -41.893867
-22.29137 44.9952 -38.609356
-28.657179 44.9952 -34.151974
-34.152233 44.9952 -28.656832
-38.609615 44.9952 -22.290941
-41.893867 44.9952 -15.2478
-43.904976 44.9952 -7.7413244
-44.5824 44.9952 3.440344E-4
-43.904976 44.9952 7.742021
-41.893436 44.9952 15.248402
-38.609272 44.9952 22.291544
-34.151806 44.9952 28.657349
-28.656662 44.9952 34.15241
-22.290855 44.9952 38.6097
-15.247628 44.9952 41.893867
-7.7411523 44.9952 43.904976
5.107368E-4 44.9952 44.5824
7.7421846 44.9952 43.904976
15.248573 44.9952 41.893436
22.291716 44.9952 38.609184
28.657522 44.9952 34.15172
34.152493 44.9952 28.656576
38.609787 44.9952 22.290684
41.893867 44.9952 15.247457
43.90541 44.9952 7.7409887
43.092194 50.7744 -7.598289
43.7568 50.7744 0.0
41.117977 50.7744 -14.96572
37.89444 50.7744 -21.878487
33.51962 50.7744 -28.126385
28.126215 50.7744 -33.519707
21.878313 50.7744 -37.894524
14.965634 50.7744 -41.117977
7.5981603 50.7744 -43.092194
-1.6361501E-4 50.7744 -43.7568
-7.5984526 50.7744 -43.092194
-14.965892 50.7744 -41.11789
-21.87857 50.7744 -37.894352
-28.12647 50.7744 -33.519447
-33.51979 50.7744 -28.12613
-37.89461 50.7744 -21.878141
-41.11806 50.7744 -14.965463
-43.092194 50.7744 -7.5979533
-43.7568 50.7744 3.376635E-4
-43.091763 50.7744 7.598659
-41.117805 50.7744 14.9660635
-37.894264 50.7744 21.878744
-33.519447 50.7744 28.126644
-28.126041 50.7744 33.519962
-21.878056 50.7744 37.8947
-14.96529 50.7744 41.11806
-7.597833 50.7744 43.092194
5.0127937E-4 50.7744 43.7568
7.598779 50.7744 43.091763
14.966236 50.7744 41.117805
21.878916 50.7744 37.89418
28.126818 50.7744 33.51927
33.520046 50.7744 28.12587
37.89478 50.7744 21.877884
41.11815 50.7744 14.965118
43.092194 50.7744 7.5976267
40.246365 56.76 -7.0965304
40.8672 56.76 0.0
38.402615 56.76 -13.977408
35.39201 56.76 -20.4336
31.306065 56.76 -26.268957
26.268871 56.76 -31.30615
20.433514 56.76 -35.392094
13.977323 56.76 -38.4027
7.0963593 56.76 -40.246365
-1.5281083E-4 56.76 -40.8672
-7.096694 56.76 -40.246277
-13.97758 56.76 -38.402527
-20.433771 56.76 -35.391926
-26.269129 56.76 -31.305979
-31.306238 56.76 -26.2687
-35.39218 56.76 -20.433428
-38.4027 56.76 -13.977149
-40.246365 56.76 -7.096238
-40.8672 56.76 3.153646E-4
-40.246277 56.76 7.0968575
-38.402527 56.76 13.977752
-35.391838 56.76 20.433945
-31.305805 56.76 26.269217
-26.268614 56.76 31.30632
-20.433256 56.76 35.39227
-13.976977 56.76 38.402782
-7.096075 56.76 40.246452
4.681771E-4 56.76 40.8672
7.096978 56.76 40.246277
13.977838 56.76 38.40244
20.434029 56.76 35.39175
26.269388 56.76 31.305805
31.306494 56.76 26.268528
35.392353 56.76 20.433084
38.40287 56.76 13.976807
40.246452 56.76 7.0959115
36.994102 60.4752 -6.5230656
37.5648 60.4752 0.0
35.29939 60.4752 -12.84797
32.532078 60.4752 -18.782486
28.776287 60.4752 -24.146221
24.146133 60.4752 -28.776375
18.782314 60.4752 -32.532078
12.847797 60.4752 -35.29939
6.5229454 60.4752 -36.994102
-1.4046207E-4 60.4752 -37.5648
-6.523229 60.4752 -36.994102
-12.848056 60.4752 -35.2993
-18.782572 60.4752 -32.531994
-24.146393 60.4752 -28.776201
-28.77646 60.4752 -24.146048
-32.532166 60.4752 -18.782227
-35.299473 60.4752 -12.847626
-36.994102 60.4752 -6.5227733
-37.5648 60.4752 2.898802E-4
-36.994102 60.4752 6.5233583
-35.2993 60.4752 12.8482275
-32.53191 60.4752 18.782658
-28.776115 60.4752 24.146479
-24.145876 60.4752 28.776546
-18.782057 60.4752 32.532253
-12.84754 60.4752 35.29956
-6.522653 60.4752 36.99419
4.30344E-4 60.4752 37.5648
6.5235214 60.4752 36.99402
12.8484 60.4752 35.299213
18.78283 60.4752 32.531822
24.146563 60.4752 28.776031
28.77663 60.4752 24.14579
32.532337 60.4752 18.78197
35.29956 60.4752 12.847367
36.99419 60.4752 6.5224895
32.9288 62.5392 -5.806238
33.436802 62.5392 0.0
31.42027 62.5392 -11.436108
28.95706 62.5392 -16.718401
25.614069 62.5392 -21.492775
21.49269 62.5392 -25.614155
16.718315 62.5392 -28.957146
11.435936 62.5392 -31.420359
5.806118 62.5392 -32.928886
-1.250268E-4 62.5392 -33.436802
-5.806359 62.5392 -32.9288
-11.436193 62.5392 -31.42027
-16.718573 62.5392 -28.95706
-21.492863 62.5392 -25.613981
-25.614239 62.5392 -21.492605
-28.957232 62.5392 -16.718227
-31.420359 62.5392 -11.43585
-32.928886 62.5392 -5.805989
-33.436802 62.5392 2.580258E-4
-32.9288 62.5392 5.806531
-31.42027 62.5392 11.436366
-28.956972 62.5392 16.718658
-25.613895 62.5392 21.493034
-21.492517 62.5392 25.614239
-16.718142 62.5392 28.95732
-11.435678 62.5392 31.420444
-5.8058686 62.5392 32.928886
3.830526E-4 62.5392 33.436802
5.806651 62.5392 32.9288
11.436452 62.5392 31.420185
16.718744 62.5392 28.95689
21.49312 62.5392 25.61381
25.614326 62.5392 21.492432
28.95732 62.5392 16.71797
31.420444 62.5392 11.435593
32.928886 62.5392 5.8057394
28.45697 63.777603 -5.0177474
28.896 63.777603 0.0
27.153383 63.777603 -9.883035
25.024624 63.777603 -14.448
22.13554 63.777603 -18.574022
18.573936 63.777603 -22.135626
14.448 63.777603 -25.02471
9.882948 63.777603 -27.153383
5.0176272 63.777603 -28.457056
-1.0804782E-4 63.777603 -28.896
-5.0178766 63.777603 -28.45697
-9.88312 63.777603 -27.153297
-14.448086 63.777603 -25.024624
-18.574108 63.777603 -22.13554
-22.135712 63.777603 -18.57385
-25.024796 63.777603 -14.447828
-27.153383 63.777603 -9.882862
-28.457056 63.777603 -5.017541
-28.896 63.777603 2.2298511E-4
-28.45697 63.777603 5.017954
-27.153297 63.777603 9.883292
-25.024538 63.777603 14.448173
-22.135454 63.777603 18.574194
-18.573765 63.777603 22.135798
-14.4477415 63.777603 25.024796
-9.882689 63.777603 27.153467
-5.017421 63.777603 28.457056
3.3103293E-4 63.777603 28.896
5.0180826 63.777603 28.45697
9.883378 63.777603 27.15321
14.448344 63.777603 25.024452
18.57428 63.777603 22.135368
22.135883 63.777603 18.573677
25.024883 63.777603 14.447657
27.153467 63.777603 9.882605
28.457056 63.777603 5.0172915
23.375402 63.984 -4.121722
23.736 63.984 0.0
22.304531 63.984 -8.118211
20.555979 63.984 -11.868
18.182808 63.984 -15.25726
15.257174 63.984 -18.182808
11.868 63.984 -20.555979
8.118125 63.984 -22.304615
4.121636 63.984 -23.375402
-8.875372E-5 63.984 -23.736
-4.121808 63.984 -23.375402
-8.118288 63.984 -22.304531
-11.868087 63.984 -20.555893
-15.25726 63.984 -18.182808
-18.182894 63.984 -15.257088
-20.556063 63.984 -11.867914
-22.304615 63.984 -8.118039
-23.375402 63.984 -4.1215415
-23.736 63.984 1.8316624E-4
-23.375402 63.984 4.1219025
-22.304531 63.984 8.118375
-20.555893 63.984 11.868172
-18.182722 63.984 15.257347
-15.257088 63.984 18.18298
-11.867827 63.984 20.55615
-8.117961 63.984 22.304615
-4.121455 63.984 23.375488
2.7191997E-4 63.984 23.736
4.121989 63.984 23.375317
8.118451 63.984 22.304443
11.8682575 63.984 20.555805
15.257432 63.984 18.182636
18.183065 63.984 15.257002
20.55615 63.984 11.867742
22.304615 63.984 8.117875
23.375488 63.984 4.121361
18.293749 63.777603 -3.2256966
18.576 63.777603 0.0
17.455765 63.777603 -6.353362
16.087246 63.777603 -9.288
14.230076 63.777603 -11.940412
11.940412 63.777603 -14.230076
9.288 63.777603 -16.087332
6.3533187 63.777603 -17.455765
3.225628 63.777603 -18.293833
-6.945936E-5 63.777603 -18.576
-3.2257655 63.777603 -18.293749
-6.3534474 63.777603 -17.455679
-9.288086 63.777603 -16.087246
-11.940498 63.777603 -14.229991
-14.230162 63.777603 -11.940326
-16.087332 63.777603 -9.287913
-17.455765 63.777603 -6.3532414
-18.293833 63.777603 -3.225559
-18.576 63.777603 1.4334738E-4
-18.293749 63.777603 3.2258341
-17.455679 63.777603 6.353525
-16.08716 63.777603 9.288172
-14.229904 63.777603 11.940584
-11.94024 63.777603 14.230162
-9.287828 63.777603 16.087418
-6.3531985 63.777603 17.455765
-3.22549 63.777603 18.293833
2.12807E-4 63.777603 18.576
3.2259116 63.777603 18.293749
6.353568 63.777603 17.455679
9.288172 63.777603 16.08716
11.940584 63.777603 14.229904
14.230248 63.777603 11.94024
16.087418 63.777603 9.287743
17.455849 63.777603 6.353112
18.293833 63.777603 3.2254128
13.415483 63.1584 -2.3655074
13.622399 63.1584 0.0
12.800842 63.1584 -4.659153
11.797308 63.1584 -6.8111997
10.435327 63.1584 -8.756349
8.756262 63.1584 -10.435412
6.811157 63.1584 -11.797394
4.65911 63.1584 -12.800928
2.3654556 63.1584 -13.415483
-5.0937026E-5 63.1584 -13.622399
-2.365559 63.1584 -13.415399
-4.6591873 63.1584 -12.800842
-6.811243 63.1584 -11.797308
-8.756349 63.1584 -10.435327
-10.435412 63.1584 -8.756262
-11.797394 63.1584 -6.8111143
-12.800928 63.1584 -4.659067
-13.415483 63.1584 -2.3654044
-13.622399 63.1584 1.0512124E-4
-13.415399 63.1584 2.3656106
-12.800842 63.1584 4.6592307
-11.797308 63.1584 6.811321
-10.435327 63.1584 8.756434
-8.756176 63.1584 10.435497
-6.8110795 63.1584 11.797394
-4.6589813 63.1584 12.800928
-2.3653526 63.1584 13.415483
1.5605905E-4 63.1584 13.622399
2.365662 63.1584 13.415399
4.6592736 63.1584 12.800842
6.811363 63.1584 11.797222
8.756434 63.1584 10.43524
10.435497 63.1584 8.756176
11.79748 63.1584 6.8110366
12.800928 63.1584 4.658947
13.415483 63.1584 2.365301
8.943656 61.92 -1.5770078
9.0816 61.92 0.0
8.5339 61.92 -3.1060963
7.864872 61.92 -4.5408
6.9569182 61.92 -5.8375683
5.837525 61.92 -6.9569182
4.5408 61.92 -7.864915
3.106062 61.92 -8.533935
1.5769734 61.92 -8.943656
-3.395796E-5 61.92 -9.0816
-1.5770422 61.92 -8.943656
-3.1061308 61.92 -8.5339
-4.540843 61.92 -7.864872
-5.8375683 61.92 -6.9568753
-6.9569616 61.92 -5.837491
-7.864915 61.92 -4.5407567
-8.533935 61.92 -3.1060276
-8.943656 61.92 -1.576939
-9.0816 61.92 7.0081056E-5
-8.94357 61.92 1.5770766
-8.5339 61.92 3.1061652
-7.864872 61.92 4.540886
-6.956833 61.92 5.837611
-5.837491 61.92 6.9569616
-4.5407143 61.92 7.864958
-3.1060019 61.92 8.533935
-1.5769047 61.92 8.943656
1.040385E-4 61.92 9.0816
1.577111 61.92 8.94357
3.1061997 61.92 8.533857
4.540886 61.92 7.864829
5.8376546 61.92 6.956833
6.957004 61.92 5.8374476
7.864958 61.92 4.5406795
8.533935 61.92 3.1059675
8.943656 61.92 1.5768702
4.6750803 59.856 -0.82434523
4.7472 59.856 0.0
4.460923 59.856 -1.6236457
4.111187 59.856 -2.3736
3.6365614 59.856 -3.0514433
3.0514348 59.856 -3.6365702
2.3735914 59.856 -4.111204
1.6236284 59.856 -4.460923
0.82432896 59.856 -4.6750803
-1.7750745E-5 59.856 -4.7472
-0.82436156 59.856 -4.6750803
-1.6236542 59.856 -4.4608803
-2.3736172 59.856 -4.111187
-3.0514605 59.856 -3.636553
-3.6365786 59.856 -3.0514176
-4.1112127 59.856 -2.3735743
-4.460923 59.856 -1.6236112
-4.6750803 59.856 -0.8243083
-4.7472 59.856 3.6633246E-5
-4.6750803 59.856 0.82438225
-4.4608803 59.856 1.6236714
-4.1111784 59.856 2.3736346
-3.636536 59.856 3.051478
-3.051409 59.856 3.636596
-2.373557 59.856 4.1112213
-1.623594 59.856 4.460923
-0.8242911 59.856 4.6750803
5.438391E-5 59.856 4.7472
0.8243986 59.856 4.6750803
1.6236972 59.856 4.4608803
2.3736515 59.856 4.11117
3.0514865 59.856 3.6365273
3.6366048 59.856 3.0513918
4.1112304 59.856 2.3735397
4.460923 59.856 1.6235682
4.6750803 59.856 0.8242704
0.0 57.792 0.0
1.3955736 55.728 -0.3739426
1.9936692 61.92 -0.5342045
2.0640001 61.92 0.0
1.4448 55.728 0.0
3.1898775 68.112 -0.8547274
3.3023999 68.112 0.0
1.2512312 55.728 -0.7224
1.7874757 61.92 -1.0320001
2.8599646 68.112 -1.6511999
1.0216284 55.728 -1.0216284
1.459463 61.92 -1.4594716
2.335141 68.112 -2.3351495
0.7223957 55.728 -1.2512312
1.0320001 61.92 -1.7874757
1.6511915 68.112 -2.8599646
0.37393746 55.728 -1.3955736
0.5341959 61.92 -1.9936692
0.85471445 68.112 -3.1898775
-5.4023994E-6 55.728 -1.4448
-7.717709E-6 61.92 -2.0640001
-1.23483105E-5 68.112 -3.3023999
-0.3739478 55.728 -1.3955736
-0.53421307 61.92 -1.9936692
-0.85473937 68.112 -3.189869
-0.7224086 55.728 -1.2512312
-1.0320085 61.92 -1.787467
-1.6512172 68.112 -2.8599558
-1.021637 55.728 -1.0216198
-1.4594716 61.92 -1.4594544
-2.3351667 68.112 -2.3351321
-1.2512399 55.728 -0.72239137
-1.7874843 61.92 -1.0319915
-2.859973 68.112 -1.6511829
-1.3955736 55.728 -0.3739323
-1.9936777 61.92 -0.53418815
-3.1898775 68.112 -0.8547024
-1.4448 55.728 1.1149298E-5
-2.0640001 61.92 1.5927544E-5
-3.3023999 68.112 2.5484036E-5
-1.3955649 55.728 0.3739538
-1.9936692 61.92 0.5342208
-3.189869 68.112 0.8547523
-1.2512226 55.728 0.72241205
-1.787467 61.92 1.0320171
-2.8599472 68.112 1.6512258
-1.0216198 55.728 1.021637
-1.4594544 61.92 1.4594802
-2.3351235 68.112 2.3351753
-0.72238797 55.728 1.2512399
-1.0319828 61.92 1.7874843
-1.6511742 68.112 2.8599815
-0.37392715 55.728 1.3955736
-0.53417957 61.92 1.9936777
-0.8546903 68.112 3.1898863
1.58627E-5 55.728 1.4448
2.2661E-5 61.92 2.0640001
3.62576E-5 68.112 3.3023999
0.37395722 55.728 1.3955649
0.5342251 61.92 1.9936606
0.85476 68.112 3.1898603
0.72241634 55.728 1.2512226
1.0320171 61.92 1.787467
1.6512344 68.112 2.8599472
1.021637 55.728 1.0216112
1.4594887 61.92 1.4594544
2.3351753 68.112 2.3351235
1.2512399 55.728 0.7223837
1.7874929 61.92 1.0319828
2.8599815 68.112 1.6511656
1.3955736 55.728 0.3739237
1.9936777 61.92 0.5341752
3.1898863 68.112 0.85468173
0.0 66.873604 0.0
3 0 1 2 
3 3 0 2 
3 4 3 2 
3 5 4 2 
3 6 5 2 
3 7 6 2 
3 8 7 2 
3 9 8 2 
3 10 9 2 
3 11 10 2 
3 12 11 2 
3 13 12 2 
3 14 13 2 
3 15 14 2 
3 16 15 2 
3 17 16 2 
3 18 17 2 
3 19 18 2 
3 20 19 2 
3 21 20 2 
3 22 21 2 
3 23 22 2 
3 24 23 2 
3 25 24 2 
3 26 25 2 
3 27 26 2 
3 28 27 2 
3 29 28 2 
3 30 29 2 
3 31 30 2 
3 32 31 2 
3 33 32 2 
3 34 33 2 
3 35 34 2 
3 36 35 2 
3 1 36 2 
3 0 37 38 
3 0 38 1 
3 3 39 37 
3 3 37 0 
3 4 40 39 
3 4 39 3 
3 5 41 40 
3 5 40 4 
3 6 42 41 
3 6 41 5 
3 7 43 42 
3 7 42 6 
3 8 44 43 
3 8 43 7 
3 9 45 44 
3 9 44 8 
3 10 46 45 
3 10 45 9 
3 11 47 46 
3 11 46 10 
3 12 48 47 
3 12 47 11 
3 13 49 48 
3 13 48 12 
3 14 50 49 
3 14 49 13 
3 15 51 50 
3 15 50 14 
3 16 52 51 
3 16 51 15 
3 17 53 52 
3 17 52 16 
3 18 54 53 
3 18 53 17 
3 19 55 54 
3 19 54 18 
3 20 56 55 
3 20 55 19 
3 21 57 56 
3 21 56 20 
3 22 58 57 
3 22 57 21 
3 23 59 58 
3 23 58 22 
3 24 60 59 
3 24 59 23 
3 25 61 60 
3 25 60 24 
3 26 62 61 
3 26 61 25 
3 27 63 62 
3 27 62 26 
3 28 64 63 
3 28 63 27 
3 29 65 64 
3 29 64 28 
3 30 66 65 
3 30 65 29 
3 31 67 66 
3 31 66 30 
3 32 68 67 
3 32 67 31 
3 33 69 68 
3 33 68 32 
3 34 70 69 
3 34 69 33 
3 35 71 70 
3 35 70 34 
3 36 72 71 
3 36 71 35 
3 1 38 72 
3 1 72 36 
3 37 73 74 
3 37 74 38 
3 39 75 73 
3 39 73 37 
3 40 76 75 
3 40 75 39 
3 41 77 76 
3 41 76 40 
3 42 78 77 
3 42 77 41 
3 43 79 78 
3 43 78 42 
3 44 80 79 
3 44 79 43 
3 45 81 80 
3 45 80 44 
3 46 82 81 
3 46 81 45 
3 47 83 82 
3 47 82 46 
3 48 84 83 
3 48 83 47 
3 49 85 84 
3 49 84 48 
3 50 86 85 
3 50 85 49 
3 51 87 86 
3 51 86 50 
3 52 88 87 
3 52 87 51 
3 53 89 88 
3 53 88 52 
3 54 90 89 
3 54 89 53 
3 55 91 90 
3 55 90 54 
3 56 92 91 
3 56 91 55 
3 57 93 92 
3 57 92 56 
3 58 94 93 
3 58 93 57 
3 59 95 94 
3 59 94 58 
3 60 96 95 
3 60 95 59 
3 61 97 96 
3 61 96 60 
3 62 98 97 
3 62 97 61 
3 63 99 98 
3 63 98 62 
3 64 100 99 
3 64 99 63 
3 65 101 100 
3 65 100 64 
3 66 102 101 
3 66 101 65 
3 67 103 102 
3 67 102 66 
3 68 104 103 
3 68 103 67 
3 69 105 104 
3 69 104 68 
3 70 106 105 
3 70 105 69 
3 71 107 106 
3 71 106 70 
3 72 108 107 
3 72 107 71 
3 38 74 108 
3 38 108 72 
3 73 109 110 
3 73 110 74 
3 75 111 109 
3 75 109 73 
3 76 112 111 
3 76 111 75 
3 77 113 112 
3 77 112 76 
3 78 114 113 
3 78 113 77 
3 79 115 114 
3 79 114 78 
3 80 116 115 
3 80 115 79 
3 81 117 116 
3 81 116 80 
3 82 118 117 
3 82 117 81 
3 83 119 118 
3 83 118 82 
3 84 120 119 
3 84 119 83 
3 85 121 120 
3 85 120 84 
3 86 122 121 
3 86 121 85 
3 87 123 122 
3 87 122 86 
3 88 124 123 
3 88 123 87 
3 89 125 124 
3 89 124 88 
3 90 126 125 
3 90 125 89 
3 91 127 126 
3 91 126 90 
3 92 128 127 
3 92 127 91 
3 93 129 128 
3 93 128 92 
3 94 130 129 
3 94 129 93 
3 95 131 130 
3 95 130 94 
3 96 132 131 
3 96 131 95 
3 97 133 132 
3 97 132 96 
3 98 134 133 
3 98 133 97 
3 99 135 134 
3 99 134 98 
3 100 136 135 
3 100 135 99 
3 101 137 136 
3 101 136 100 
3 102 138 137 
3 102 137 101 
3 103 139 138 
3 103 138 102 
3 104 140 139 
3 104 139 103 
3 105 141 140 
3 105 140 104 
3 106 142 141 
3 106 141 105 
3 107 143 142 
3 107 142 106 
3 108 144 143 
3 108 143 107 
3 74 110 144 
3 74 144 108 
3 109 145 146 
3 109 146 110 
3 111 147 145 
3 111 145 109 
3 112 148 147 
3 112 147 111 
3 113 149 148 
3 113 148 112 
3 114 150 149 
3 114 149 113 
3 115 151 150 
3 115 150 114 
3 116 152 151 
3 116 151 115 
3 117 153 152 
3 117 152 116 
3 118 154 153 
3 118 153 117 
3 119 155 154 
3 119 154 118 
3 120 156 155 
3 120 155 119 
3 121 157 156 
3 121 156 120 
3 122 158 157 
3 122 157 121 
3 123 159 158 
3 123 158 122 
3 124 160 159 
3 124 159 123 
3 125 161 160 
3 125 160 124 
3 126 162 161 
3 126 161 125 
3 127 163 162 
3 127 162 126 
3 128 164 163 
3 128 163 127 
3 129 165 164 
3 129 164 128 
3 130 166 165 
3 130 165 129 
3 131 167 166 
3 131 166 130 
3 132 168 167 
3 132 167 131 
3 133 169 168 
3 133 168 132 
3 134 170 169 
3 134 169 133 
3 135 171 170 
3 135 170 134 
3 136 172 171 
3 136 171 135 
3 137 173 172 
3 137 172 136 
3 138 174 173 
3 138 173 137 
3 139 175 174 
3 139 174 138 
3 140 176 175 
3 140 175 139 
3 141 177 176 
3 141 176 140 
3 142 178 177 
3 142 177 141 
3 143 179 178 
3 143 178 142 
3 144 180 179 
3 144 179 143 
3 110 146 180 
3 110 180 144 
3 145 181 182 
3 145 182 146 
3 147 183 181 
3 147 181 145 
3 148 184 183 
3 148 183 147 
3 149 185 184 
3 149 184 148 
3 150 186 185 
3 150 185 149 
3 151 187 186 
3 151 186 150 
3 152 188 187 
3 152 187 151 
3 153 189 188 
3 153 188 152 
3 154 190 189 
3 154 189 153 
3 155 191 190 
3 155 190 154 
3 156 192 191 
3 156 191 155 
3 157 193 192 
3 157 192 156 
3 158 194 193 
3 158 193 157 
3 159 195 194 
3 159 194 158 
3 160 196 195 
3 160 195 159 
3 161 197 196 
3 161 196 160 
3 162 198 197 
3 162 197 161 
3 163 199 198 
3 163 198 162 
3 164 200 199 
3 164 199 163 
3 165 201 200 
3 165 200 164 
3 166 202 201 
3 166 201 165 
3 167 203 202 
3 167 202 166 
3 168 204 203 
3 168 203 167 
3 169 205 204 
3 169 204 168 
3 170 206 205 
3 170 205 169 
3 171 207 206 
3 171 206 170 
3 172 208 207 
3 172 207 171 
3 173 209 208 
3 173 208 172 
3 174 210 209 
3 174 209 173 
3 175 211 210 
3 175 210 174 
3 176 212 211 
3 176 211 175 
3 177 213 212 
3 177 212 176 
3 178 214 213 
3 178 213 177 
3 179 215 214 
3 179 214 178 
3 180 216 215 
3 180 215 179 
3 146 182 216 
3 146 216 180 
3 181 217 218 
3 181 218 182 
3 183 219 217 
3 183 217 181 
3 184 220 219 
3 184 219 183 
3 185 221 220 
3 185 220 184 
3 186 222 221 
3 186 221 185 
3 187 223 222 
3 187 222 186 
3 188 224 223 
3 188 223 187 
3 189 225 224 
3 189 224 188 
3 190 226 225 
3 190 225 189 
3 191 227 226 
3 191 226 190 
3 192 228 227 
3 192 227 191 
3 193 229 228 
3 193 228 192 
3 194 230 229 
3 194 229 193 
3 195 231 230 
3 195 230 194 
3 196 232 231 
3 196 231 195 
3 197 233 232 
3 197 232 196 
3 198 234 233 
3 198 233 197 
3 199 235 234 
3 199 234 198 
3 200 236 235 
3 200 235 199 
3 201 237 236 
3 201 236 200 
3 202 238 237 
3 202 237 201 
3 203 239 238 
3 203 238 202 
3 204 240 239 
3 204 239 203 
3 205 241 240 
3 205 240 204 
3 206 242 241 
3 206 241 205 
3 207 243 242 
3 207 242 206 
3 208 244 243 
3 208 243 207 
3 209 245 244 
3 209 244 208 
3 210 246 245 
3 210 245 209 
3 211 247 246 
3 211 246 210 
3 212 248 247 
3 212 247 211 
3 213 249 248 
3 213 248 212 
3 214 250 249 
3 214 249 213 
3 215 251 250 
3 215 250 214 
3 216 252 251 
3 216 251 215 
3 182 218 252 
3 182 252 216 
3 217 253 254 
3 217 254 218 
3 219 255 253 
3 219 253 217 
3 220 256 255 
3 220 255 219 
3 221 257 256 
3 221 256 220 
3 222 258 257 
3 222 257 221 
3 223 259 258 
3 223 258 222 
3 224 260 259 
3 224 259 223 
3 225 261 260 
3 225 260 224 
3 226 262 261 
3 226 261 225 
3 227 263 262 
3 227 262 226 
3 228 264 263 
3 228 263 227 
3 229 265 264 
3 229 264 228 
3 230 266 265 
3 230 265 229 
3 231 267 266 
3 231 266 230 
3 232 268 267 
3 232 267 231 
3 233 269 268 
3 233 268 232 
3 234 270 269 
3 234 269 233 
3 235 271 270 
3 235 270 234 
3 236 272 271 
3 236 271 235 
3 237 273 272 
3 237 272 236 
3 238 274 273 
3 238 273 237 
3 239 275 274 
3 239 274 238 
3 240 276 275 
3 240 275 239 
3 241 277 276 
3 241 276 240 
3 242 278 277 
3 242 277 241 
3 243 279 278 
3 243 278 242 
3 244 280 279 
3 244 279 243 
3 245 281 280 
3 245 280 244 
3 246 282 281 
3 246 281 245 
3 247 283 282 
3 247 282 246 
3 248 284 283 
3 248 283 247 
3 249 285 284 
3 249 284 248 
3 250 286 285 
3 250 285 249 
3 251 287 286 
3 251 286 250 
3 252 288 287 
3 252 287 251 
3 218 254 288 
3 218 288 252 
3 253 289 290 
3 253 290 254 
3 255 291 289 
3 255 289 253 
3 256 292 291 
3 256 291 255 
3 257 293 292 
3 257 292 256 
3 258 294 293 
3 258 293 257 
3 259 295 294 
3 259 294 258 
3 260 296 295 
3 260 295 259 
3 261 297 296 
3 261 296 260 
3 262 298 297 
3 262 297 261 
3 263 299 298 
3 263 298 262 
3 264 300 299 
3 264 299 263 
3 265 301 300 
3 265 300 264 
3 266 302 301 
3 266 301 265 
3 267 303 302 
3 267 302 266 
3 268 304 303 
3 268 303 267 
3 269 305 304 
3 269 304 268 
3 270 306 305 
3 270 305 269 
3 271 307 306 
3 271 306 270 
3 272 308 307 
3 272 307 271 
3 273 309 308 
3 273 308 272 
3 274 310 309 
3 274 309 273 
3 275 311 310 
3 275 310 274 
3 276 312 311 
3 276 311 275 
3 277 313 312 
3 277 312 276 
3 278 314 313 
3 278 313 277 
3 279 315 314 
3 279 314 278 
3 280 316 315 
3 280 315 279 
3 281 317 316 
3 281 316 280 
3 282 318 317 
3 282 317 281 
3 283 319 318 
3 283 318 282 
3 284 320 319 
3 284 319 283 
3 285 321 320 
3 285 320 284 
3 286 322 321 
3 286 321 285 
3 287 323 322 
3 287 322 286 
3 288 324 323 
3 288 323 287 
3 254 290 324 
3 254 324 288 
3 289 325 326 
3 289 326 290 
3 291 327 325 
3 291 325 289 
3 292 328 327 
3 292 327 291 
3 293 329 328 
3 293 328 292 
3 294 330 329 
3 294 329 293 
3 295 331 330 
3 295 330 294 
3 296 332 331 
3 296 331 295 
3 297 333 332 
3 297 332 296 
3 298 334 333 
3 298 333 297 
3 299 335 334 
3 299 334 298 
3 300 336 335 
3 300 335 299 
3 301 337 336 
3 301 336 300 
3 302 338 337 
3 302 337 301 
3 303 339 338 
3 303 338 302 
3 304 340 339 
3 304 339 303 
3 305 341 340 
3 305 340 304 
3 306 342 341 
3 306 341 305 
3 307 343 342 
3 307 342 306 
3 308 344 343 
3 308 343 307 
3 309 345 344 
3 309 344 308 
3 310 346 345 
3 310 345 309 
3 311 347 346 
3 311 346 310 
3 312 348 347 
3 312 347 311 
3 313 349 348 
3 313 348 312 
3 314 350 349 
3 314 349 313 
3 315 351 350 
3 315 350 314 
3 316 352 351 
3 316 351 315 
3 317 353 352 
3 317 352 316 
3 318 354 353 
3 318 353 317 
3 319 355 354 
3 319 354 318 
3 320 356 355 
3 320 355 319 
3 321 357 356 
3 321 356 320 
3 322 358 357 
3 322 357 321 
3 323 359 358 
3 323 358 322 
3 324 360 359 
3 324 359 323 
3 290 326 360 
3 290 360 324 
3 325 361 362 
3 325 362 326 
3 327 363 361 
3 327 361 325 
3 328 364 363 
3 328 363 327 
3 329 365 364 
3 329 364 328 
3 330 366 365 
3 330 365 329 
3 331 367 366 
3 331 366 330 
3 332 368 367 
3 332 367 331 
3 333 369 368 
3 333 368 332 
3 334 370 369 
3 334 369 333 
3 335 371 370 
3 335 370 334 
3 336 372 371 
3 336 371 335 
3 337 373 372 
3 337 372 336 
3 338 374 373 
3 338 373 337 
3 339 375 374 
3 339 374 338 
3 340 376 375 
3 340 375 339 
3 341 377 376 
3 341 376 340 
3 342 378 377 
3 342 377 341 
3 343 379 378 
3 343 378 342 
3 344 380 379 
3 344 379 343 
3 345 381 380 
3 345 380 344 
3 346 382 381 
3 346 381 345 
3 347 383 382 
3 347 382 346 
3 348 384 383 
3 348 383 347 
3 349 385 384 
3 349 384 348 
3 350 386 385 
3 350 385 349 
3 351 387 386 
3 351 386 350 
3 352 388 387 
3 352 387 351 
3 353 389 388 
3 353 388 352 
3 354 390 389 
3 354 389 353 
3 355 391 390 
3 355 390 354 
3 356 392 391 
3 356 391 355 
3 357 393 392 
3 357 392 356 
3 358 394 393 
3 358 393 357 
3 359 395 394 
3 359 394 358 
3 360 396 395 
3 360 395 359 
3 326 362 396 
3 326 396 360 
3 361 397 398 
3 361 398 362 
3 363 399 397 
3 363 397 361 
3 364 400 399 
3 364 399 363 
3 365 401 400 
3 365 400 364 
3 366 402 401 
3 366 401 365 
3 367 403 402 
3 367 402 366 
3 368 404 403 
3 368 403 367 
3 369 405 404 
3 369 404 368 
3 370 406 405 
3 370 405 369 
3 371 407 406 
3 371 406 370 
3 372 408 407 
3 372 407 371 
3 373 409 408 
3 373 408 372 
3 374 410 409 
3 374 409 373 
3 375 411 410 
3 375 410 374 
3 376 412 411 
3 376 411 375 
3 377 413 412 
3 377 412 376 
3 378 414 413 
3 378 413 377 
3 379 415 414 
3 379 414 378 
3 380 416 415 
3 380 415 379 
3 381 417 416 
3 381 416 380 
3 382 418 417 
3 382 417 381 
3 383 419 418 
3 383 418 382 
3 384 420 419 
3 384 419 383 
3 385 421 420 
3 385 420 384 
3 386 422 421 
3 386 421 385 
3 387 423 422 
3 387 422 386 
3 388 424 423 
3 388 423 387 
3 389 425 424 
3 389 424 388 
3 390 426 425 
3 390 425 389 
3 391 427 426 
3 391 426 390 
3 392 428 427 
3 392 427 391 
3 393 429 428 
3 393 428 392 
3 394 430 429 
3 394 429 393 
3 395 431 430 
3 395 430 394 
3 396 432 431 
3 396 431 395 
3 362 398 432 
3 362 432 396 
3 397 433 434 
3 397 434 398 
3 399 435 433 
3 399 433 397 
3 400 436 435 
3 400 435 399 
3 401 437 436 
3 401 436 400 
3 402 438 437 
3 402 437 401 
3 403 439 438 
3 403 438 402 
3 404 440 439 
3 404 439 403 
3 405 441 440 
3 405 440 404 
3 406 442 441 
3 406 441 405 
3 407 443 442 
3 407 442 406 
3 408 444 443 
3 408 443 407 
3 409 445 444 
3 409 444 408 
3 410 446 445 
3 410 445 409 
3 411 447 446 
3 411 446 410 
3 412 448 447 
3 412 447 411 
3 413 449 448 
3 413 448 412 
3 414 450 449 
3 414 449 413 
3 415 451 450 
3 415 450 414 
3 416 452 451 
3 416 451 415 
3 417 453 452 
3 417 452 416 
3 418 454 453 
3 418 453 417 
3 419 455 454 
3 419 454 418 
3 420 456 455 
3 420 455 419 
3 421 457 456 
3 421 456 420 
3 422 458 457 
3 422 457 421 
3 423 459 458 
3 423 458 422 
3 424 460 459 
3 424 459 423 
3 425 461 460 
3 425 460 424 
3 426 462 461 
3 426 461 425 
3 427 463 462 
3 427 462 426 
3 428 464 463 
3 428 463 427 
3 429 465 464 
3 429 464 428 
3 430 466 465 
3 430 465 429 
3 431 467 466 
3 431 466 430 
3 432 468 467 
3 432 467 431 
3 398 434 468 
3 398 468 432 
3 433 469 470 
3 433 470 434 
3 435 471 469 
3 435 469 433 
3 436 472 471 
3 436 471 435 
3 437 473 472 
3 437 472 436 
3 438 474 473 
3 438 473 437 
3 439 475 474 
3 439 474 438 
3 440 476 475 
3 440 475 439 
3 441 477 476 
3 441 476 440 
3 442 478 477 
3 442 477 441 
3 443 479 478 
3 443 478 442 
3 444 480 479 
3 444 479 443 
3 445 481 480 
3 445 480 444 
3 446 482 481 
3 446 481 445 
3 447 483 482 
3 447 482 446 
3 448 484 483 
3 448 483 447 
3 449 485 484 
3 449 484 448 
3 450 486 485 
3 450 485 449 
3 451 487 486 
3 451 486 450 
3 452 488 487 
3 452 487 451 
3 453 489 488 
3 453 488 452 
3 454 490 489 
3 454 489 453 
3 455 491 490 
3 455 490 454 
3 456 492 491 
3 456 491 455 
3 457 493 492 
3 457 492 456 
3 458 494 493 
3 458 493 457 
3 459 495 494 
3 459 494 458 
3 460 496 495 
3 460 495 459 
3 461 497 496 
3 461 496 460 
3 462 498 497 
3 462 497 461 
3 463 499 498 
3 463 498 462 
3 464 500 499 
3 464 499 463 
3 465 501 500 
3 465 500 464 
3 466 502 501 
3 466 501 465 
3 467 503 502 
3 467 502 466 
3 468 504 503 
3 468 503 467 
3 434 470 504 
3 434 504 468 
3 469 505 506 
3 469 506 470 
3 471 507 505 
3 471 505 469 
3 472 508 507 
3 472 507 471 
3 473 509 508 
3 473 508 472 
3 474 510 509 
3 474 509 473 
3 475 511 510 
3 475 510 474 
3 476 512 511 
3 476 511 475 
3 477 513 512 
3 477 512 476 
3 478 514 513 
3 478 513 477 
3 479 515 514 
3 479 514 478 
3 480 516 515 
3 480 515 479 
3 481 517 516 
3 481 516 480 
3 482 518 517 
3 482 517 481 
3 483 519 518 
3 483 518 482 
3 484 520 519 
3 484 519 483 
3 485 521 520 
3 485 520 484 
3 486 522 521 
3 486 521 485 
3 487 523 522 
3 487 522 486 
3 488 524 523 
3 488 523 487 
3 489 525 524 
3 489 524 488 
3 490 526 525 
3 490 525 489 
3 491 527 526 
3 491 526 490 
3 492 528 527 
3 492 527 491 
3 493 529 528 
3 493 528 492 
3 494 530 529 
3 494 529 493 
3 495 531 530 
3 495 530 494 
3 496 532 531 
3 496 531 495 
3 497 533 532 
3 497 532 496 
3 498 534 533 
3 498 533 497 
3 499 535 534 
3 499 534 498 
3 500 536 535 
3 500 535 499 
3 501 537 536 
3 501 536 500 
3 502 538 537 
3 502 537 501 
3 503 539 538 
3 503 538 502 
3 504 540 539 
3 504 539 503 
3 470 506 540 
3 470 540 504 
3 505 541 542 
3 505 542 506 
3 507 543 541 
3 507 541 505 
3 508 544 543 
3 508 543 507 
3 509 545 544 
3 509 544 508 
3 510 546 545 
3 510 545 509 
3 511 547 546 
3 511 546 510 
3 512 548 547 
3 512 547 511 
3 513 549 548 
3 513 548 512 
3 514 550 549 
3 514 549 513 
3 515 551 550 
3 515 550 514 
3 516 552 551 
3 516 551 515 
3 517 553 552 
3 517 552 516 
3 518 554 553 
3 518 553 517 
3 519 555 554 
3 519 554 518 
3 520 556 555 
3 520 555 519 
3 521 557 556 
3 521 556 520 
3 522 558 557 
3 522 557 521 
3 523 559 558 
3 523 558 522 
3 524 560 559 
3 524 559 523 
3 525 561 560 
3 525 560 524 
3 526 562 561 
3 526 561 525 
3 527 563 562 
3 527 562 526 
3 528 564 563 
3 528 563 527 
3 529 565 564 
3 529 564 528 
3 530 566 565 
3 530 565 529 
3 531 567 566 
3 531 566 530 
3 532 568 567 
3 532 567 531 
3 533 569 568 
3 533 568 532 
3 534 570 569 
3 534 569 533 
3 535 571 570 
3 535 570 534 
3 536 572 571 
3 536 571 535 
3 537 573 572 
3 537 572 536 
3 538 574 573 
3 538 573 537 
3 539 575 574 
3 539 574 538 
3 540 576 575 
3 540 575 539 
3 506 542 576 
3 506 576 540 
3 541 577 578 
3 541 578 542 
3 543 579 577 
3 543 577 541 
3 544 580 579 
3 544 579 543 
3 545 581 580 
3 545 580 544 
3 546 582 581 
3 546 581 545 
3 547 583 582 
3 547 582 546 
3 548 584 583 
3 548 583 547 
3 549 585 584 
3 549 584 548 
3 550 586 585 
3 550 585 549 
3 551 587 586 
3 551 586 550 
3 552 588 587 
3 552 587 551 
3 553 589 588 
3 553 588 552 
3 554 590 589 
3 554 589 553 
3 555 591 590 
3 555 590 554 
3 556 592 591 
3 556 591 555 
3 557 593 592 
3 557 592 556 
3 558 594 593 
3 558 593 557 
3 559 595 594 
3 559 594 558 
3 560 596 595 
3 560 595 559 
3 561 597 596 
3 561 596 560 
3 562 598 597 
3 562 597 561 
3 563 599 598 
3 563 598 562 
3 564 600 599 
3 564 599 563 
3 565 601 600 
3 565 600 564 
3 566 602 601 
3 566 601 565 
3 567 603 602 
3 567 602 566 
3 568 604 603 
3 568 603 567 
3 569 605 604 
3 569 604 568 
3 570 606 605 
3 570 605 569 
3 571 607 606 
3 571 606 570 
3 572 608 607 
3 572 607 571 
3 573 609 608 
3 573 608 572 
3 574 610 609 
3 574 609 573 
3 575 611 610 
3 575 610 574 
3 576 612 611 
3 576 611 575 
3 542 578 612 
3 542 612 576 
3 577 613 614 
3 577 614 578 
3 579 615 613 
3 579 613 577 
3 580 616 615 
3 580 615 579 
3 581 617 616 
3 581 616 580 
3 582 618 617 
3 582 617 581 
3 583 619 618 
3 583 618 582 
3 584 620 619 
3 584 619 583 
3 585 621 620 
3 585 620 584 
3 586 622 621 
3 586 621 585 
3 587 623 622 
3 587 622 586 
3 588 624 623 
3 588 623 587 
3 589 625 624 
3 589 624 588 
3 590 626 625 
3 590 625 589 
3 591 627 626 
3 591 626 590 
3 592 628 627 
3 592 627 591 
3 593 629 628 
3 593 628 592 
3 594 630 629 
3 594 629 593 
3 595 631 630 
3 595 630 594 
3 596 632 631 
3 596 631 595 
3 597 633 632 
3 597 632 596 
3 598 634 633 
3 598 633 597 
3 599 635 634 
3 599 634 598 
3 600 636 635 
3 600 635 599 
3 601 637 636 
3 601 636 600 
3 602 638 637 
3 602 637 601 
3 603 639 638 
3 603 638 602 
3 604 640 639 
3 604 639 603 
3 605 641 640 
3 605 640 604 
3 606 642 641 
3 606 641 605 
3 607 643 642 
3 607 642 606 
3 608 644 643 
3 608 643 607 
3 609 645 644 
3 609 644 608 
3 610 646 645 
3 610 645 609 
3 611 647 646 
3 611 646 610 
3 612 648 647 
3 612 647 611 
3 578 614 648 
3 578 648 612 
3 613 649 650 
3 613 650 614 
3 615 651 649 
3 615 649 613 
3 616 652 651 
3 616 651 615 
3 617 653 652 
3 617 652 616 
3 618 654 653 
3 618 653 617 
3 619 655 654 
3 619 654 618 
3 620 656 655 
3 620 655 619 
3 621 657 656 
3 621 656 620 
3 622 658 657 
3 622 657 621 
3 623 659 658 
3 623 658 622 
3 624 660 659 
3 624 659 623 
3 625 661 660 
3 625 660 624 
3 626 662 661 
3 626 661 625 
3 627 663 662 
3 627 662 626 
3 628 664 663 
3 628 663 627 
3 629 665 664 
3 629 664 628 
3 630 666 665 
3 630 665 629 
3 631 667 666 
3 631 666 630 
3 632 668 667 
3 632 667 631 
3 633 669 668 
3 633 668 632 
3 634 670 669 
3 634 669 633 
3 635 671 670 
3 635 670 634 
3 636 672 671 
3 636 671 635 
3 637 673 672 
3 637 672 636 
3 638 674 673 
3 638 673 637 
3 639 675 674 
3 639 674 638 
3 640 676 675 
3 640 675 639 
3 641 677 676 
3 641 676 640 
3 642 678 677 
3 642 677 641 
3 643 679 678 
3 643 678 642 
3 644 680 679 
3 644 679 643 
3 645 681 680 
3 645 680 644 
3 646 682 681 
3 646 681 645 
3 647 683 682 
3 647 682 646 
3 648 684 683 
3 648 683 647 
3 614 650 684 
3 614 684 648 
3 649 685 686 
3 649 686 650 
3 651 687 685 
3 651 685 649 
3 652 688 687 
3 652 687 651 
3 653 689 688 
3 653 688 652 
3 654 690 689 
3 654 689 653 
3 655 691 690 
3 655 690 654 
3 656 692 691 
3 656 691 655 
3 657 693 692 
3 657 692 656 
3 658 694 693 
3 658 693 657 
3 659 695 694 
3 659 694 658 
3 660 696 695 
3 660 695 659 
3 661 697 696 
3 661 696 660 
3 662 698 697 
3 662 697 661 
3 663 699 698 
3 663 698 662 
3 664 700 699 
3 664 699 663 
3 665 701 700 
3 665 700 664 
3 666 702 701 
3 666 701 665 
3 667 703 702 
3 667 702 666 
3 668 704 703 
3 668 703 667 
3 669 705 704 
3 669 704 668 
3 670 706 705 
3 670 705 669 
3 671 707 706 
3 671 706 670 
3 672 708 707 
3 672 707 671 
3 673 709 708 
3 673 708 672 
3 674 710 709 
3 674 709 673 
3 675 711 710 
3 675 710 674 
3 676 712 711 
3 676 711 675 
3 677 713 712 
3 677 712 676 
3 678 714 713 
3 678 713 677 
3 679 715 714 
3 679 714 678 
3 680 716 715 
3 680 715 679 
3 681 717 716 
3 681 716 680 
3 682 718 717 
3 682 717 681 
3 683 719 718 
3 683 718 682 
3 684 720 719 
3 684 719 683 
3 650 686 720 
3 650 720 684 
3 685 721 722 
3 685 722 686 
3 687 723 721 
3 687 721 685 
3 688 724 723 
3 688 723 687 
3 689 725 724 
3 689 724 688 
3 690 726 725 
3 690 725 689 
3 691 727 726 
3 691 726 690 
3 692 728 727 
3 692 727 691 
3 693 729 728 
3 693 728 692 
3 694 730 729 
3 694 729 693 
3 695 731 730 
3 695 730 694 
3 696 732 731 
3 696 731 695 
3 697 733 732 
3 697 732 696 
3 698 734 733 
3 698 733 697 
3 699 735 734 
3 699 734 698 
3 700 736 735 
3 700 735 699 
3 701 737 736 
3 701 736 700 
3 702 738 737 
3 702 737 701 
3 703 739 738 
3 703 738 702 
3 704 740 739 
3 704 739 703 
3 705 741 740 
3 705 740 704 
3 706 742 741 
3 706 741 705 
3 707 743 742 
3 707 742 706 
3 708 744 743 
3 708 743 707 
3 709 745 744 
3 709 744 708 
3 710 746 745 
3 710 745 709 
3 711 747 746 
3 711 746 710 
3 712 748 747 
3 712 747 711 
3 713 749 748 
3 713 748 712 
3 714 750 749 
3 714 749 713 
3 715 751 750 
3 715 750 714 
3 716 752 751 
3 716 751 715 
3 717 753 752 
3 717 752 716 
3 718 754 753 
3 718 753 717 
3 719 755 754 
3 719 754 718 
3 720 756 755 
3 720 755 719 
3 686 722 756 
3 686 756 720 
3 721 757 758 
3 721 758 722 
3 723 759 757 
3 723 757 721 
3 724 760 759 
3 724 759 723 
3 725 761 760 
3 725 760 724 
3 726 762 761 
3 726 761 725 
3 727 763 762 
3 727 762 726 
3 728 764 763 
3 728 763 727 
3 729 765 764 
3 729 764 728 
3 730 766 765 
3 730 765 729 
3 731 767 766 
3 731 766 730 
3 732 768 767 
3 732 767 731 
3 733 769 768 
3 733 768 732 
3 734 770 769 
3 734 769 733 
3 735 771 770 
3 735 770 734 
3 736 772 771 
3 736 771 735 
3 737 773 772 
3 737 772 736 
3 738 774 773 
3 738 773 737 
3 739 775 774 
3 739 774 738 
3 740 776 775 
3 740 775 739 
3 741 777 776 
3 741 776 740 
3 742 778 777 
3 742 777 741 
3 743 779 778 
3 743 778 742 
3 744 780 779 
3 744 779 743 
3 745 781 780 
3 745 780 744 
3 746 782 781 
3 746 781 745 
3 747 783 782 
3 747 782 746 
3 748 784 783 
3 748 783 747 
3 749 785 784 
3 749 784 748 
3 750 786 785 
3 750 785 749 
3 751 787 786 
3 751 786 750 
3 752 788 787 
3 752 787 751 
3 753 789 788 
3 753 788 752 
3 754 790 789 
3 754 789 753 
3 755 791 790 
3 755 790 754 
3 756 792 791 
3 756 791 755 
3 722 758 792 
3 722 792 756 
3 757 793 758 
3 759 793 757 
3 760 793 759 
3 761 793 760 
3 762 793 761 
3 763 793 762 
3 764 793 763 
3 765 793 764 
3 766 793 765 
3 767 793 766 
3 768 793 767 
3 769 793 768 
3 770 793 769 
3 771 793 770 
3 772 793 771 
3 773 793 772 
3 774 793 773 
3 775 793 774 
3 776 793 775 
3 777 793 776 
3 778 793 777 
3 779 793 778 
3 780 793 779 
3 781 793 780 
3 782 793 781 
3 783 793 782 
3 784 793 783 
3 785 793 784 
3 786 793 785 
3 787 793 786 
3 788 793 787 
3 789 793 788 
3 790 793 789 
3 791 793 790 
3 792 793 791 
3 758 793 792 
3 794 795 796 
3 794 796 797 
3 795 798 799 
3 795 799 796 
3 800 801 795 
3 800 795 794 
3 801 802 798 
3 801 798 795 
3 803 804 801 
3 803 801 800 
3 804 805 802 
3 804 802 801 
3 806 807 804 
3 806 804 803 
3 807 808 805 
3 807 805 804 
3 809 810 807 
3 809 807 806 
3 810 811 808 
3 810 808 807 
3 812 813 810 
3 812 810 809 
3 813 814 811 
3 813 811 810 
3 815 816 813 
3 815 813 812 
3 816 817 814 
3 816 814 813 
3 818 819 816 
3 818 816 815 
3 819 820 817 
3 819 817 816 
3 821 822 819 
3 821 819 818 
3 822 823 820 
3 822 820 819 
3 824 825 822 
3 824 822 821 
3 825 826 823 
3 825 823 822 
3 827 828 825 
3 827 825 824 
3 828 829 826 
3 828 826 825 
3 830 831 828 
3 830 828 827 
3 831 832 829 
3 831 829 828 
3 833 834 831 
3 833 831 830 
3 834 835 832 
3 834 832 831 
3 836 837 834 
3 836 834 833 
3 837 838 835 
3 837 835 834 
3 839 840 837 
3 839 837 836 
3 840 841 838 
3 840 838 837 
3 842 843 840 
3 842 840 839 
3 843 844 841 
3 843 841 840 
3 845 846 843 
3 845 843 842 
3 846 847 844 
3 846 844 843 
3 848 849 846 
3 848 846 845 
3 849 850 847 
3 849 847 846 
3 851 852 849 
3 851 849 848 
3 852 853 850 
3 852 850 849 
3 854 855 852 
3 854 852 851 
3 855 856 853 
3 855 853 852 
3 857 858 855 
3 857 855 854 
3 858 859 856 
3 858 856 855 
3 860 861 858 
3 860 858 857 
3 861 862 859 
3 861 859 858 
3 863 864 861 
3 863 861 860 
3 864 865 862 
3 864 862 861 
3 797 796 864 
3 797 864 863 
3 796 799 865 
3 796 865 864 
3 866 799 798 
3 866 798 802 
3 866 802 805 
3 866 805 808 
3 866 808 811 
3 866 811 814 
3 866 814 817 
3 866 817 820 
3 866 820 823 
3 866 823 826 
3 866 826 829 
3 866 829 832 
3 866 832 835 
3 866 835 838 
3 866 838 841 
3 866 841 844 
3 866 844 847 
3 866 847 850 
3 866 850 853 
3 866 853 856 
3 866 856 859 
3 866 859 862 
3 866 862 865 
3 866 865 799 
