ply
format ascii 1.0
element vertex 20
property float32 x
property float32 y
property float32 z
element face 12
property list uint8 int32 vertex_indices
end_header
3422.65 -577.35 1777.35 
4934.17 356.822 1200 
4934.17 -356.822 1200 
3065.83 356.822 1200 
3065.83 -356.822 1200 
4000 934.172 1556.82 
4000 934.172 843.178 
4356.82 0 265.828 
3643.18 0 265.828 
4000 -934.172 843.178 
4000 -934.172 1556.82 
4356.82 0 2134.17 
3643.18 0 2134.17 
4577.35 577.35 622.65 
4577.35 577.35 1777.35 
3422.65 577.35 622.65 
3422.65 577.35 1777.35 
4577.35 -577.35 622.65 
4577.35 -577.35 1777.35 
3422.65 -577.35 622.65 
5  1  2  18  11  14 
5  1  13  7  17  2 
5  3  4  19  8  15 
5  3  16  12  0  4 
5  3  15  6  5  16 
5  1  14  5  6  13 
5  2  17  9  10  18 
5  4  0  10  9  19 
5  7  8  19  9  17 
5  6  15  8  7  13 
5  5  14  11  12  16 
5  10  0  12  11  18 
